<svg width="37" height="37" viewBox="0 0 37 37" fill="none" xmlns="http://www.w3.org/2000/svg">
<rect width="37" height="37" fill="white"/>
<g clip-path="url(#clip0_0_1)">
<rect width="37" height="37" fill="white"/>
<path d="M19.4215 13.8813C18.3803 13.431 17.6423 13.3581 16.6813 13.6464C14.8863 14.2117 13.6757 16.2328 14.2416 18.2182C14.5535 19.3128 15.0753 19.9081 15.8952 20.4515" stroke="#ECBA33" stroke-width="1.5" stroke-linecap="round"/>
<path d="M25.7695 13.0661C26.1898 12.4244 26.9311 11.4399 26.8388 11.0938C26.8286 10.7462 26.6052 10.4494 26.1583 9.85584L25.5281 9.01851C25.0514 8.38527 24.813 8.06865 24.4666 7.9774C24.1204 7.88613 23.7634 8.04592 23.0496 8.36546L21.8366 8.90558C21.3774 9.08373 20.8718 9.08936 20.4088 8.92149L20.0333 8.76387C19.63 8.57166 19.2969 8.25182 19.083 7.85116L18.5979 6.84157C18.2784 6.17328 18.1186 5.83913 17.822 5.67659C17.5253 5.51405 17.1665 5.56403 16.4489 5.66396L15.2967 5.82442C14.579 5.92437 14.2202 5.97435 13.9766 6.21212C13.7329 6.44991 13.6658 6.81567 13.5314 7.54717L13.3262 8.65288C13.2241 9.09757 12.9862 9.49691 12.6473 9.79249L12.3264 10.0471C11.9238 10.3355 11.4349 10.4684 10.9461 10.4223L9.63674 10.2334C8.86575 10.1207 8.48021 10.0643 8.17007 10.247C7.85994 10.4296 7.71252 10.8 7.41759 11.5407L7.0276 12.5201C6.75117 13.2144 6.61299 13.5615 6.69337 13.8994C6.77386 14.2373 7.05246 14.4798 7.60964 14.9648L8.83703 16.0387C9.14213 16.3407 9.40514 16.9045 9.47525 17.4345C9.54542 17.9649 9.4385 18.5801 9.22281 18.9547L8.31883 20.3255C7.90781 20.9453 7.7023 21.2552 7.7125 21.6029C7.72282 21.9506 7.94618 22.2473 8.39299 22.8409L9.02331 23.6782C9.50002 24.3114 9.73833 24.6281 10.0847 24.7193C10.4311 24.8106 10.788 24.6508 11.5018 24.3312L12.7147 23.7911C13.174 23.6129 13.6797 23.6074 14.1428 23.7753L14.5181 23.933C14.9215 24.1252 15.2545 24.4449 15.4683 24.8456L15.9535 25.8553C16.273 26.5236 16.4466 26.8699 16.6737 26.9943C16.7417 27.0315 17.0174 27.2056 17.6226 27.1019" stroke="#ECBA33" stroke-width="1.5" stroke-linecap="round"/>
<path d="M31.1341 22.6826C30.4998 23.8359 28.829 24.2864 26.2821 25.0306C24.6435 25.5093 22.9404 24.5478 22.4782 22.886C21.7617 20.3042 21.2594 18.6284 21.8938 17.4751C22.528 16.3218 22.928 16.2442 26.8387 15.1016C27.2162 14.9895 27.5351 15.3975 27.3431 15.7466L25.8965 18.3776C25.5293 19.0454 25.7612 19.8863 26.4162 20.2554C27.0712 20.6245 27.9 20.3824 28.2673 19.7147L29.7146 17.0841C29.9067 16.735 30.4173 16.7944 30.5221 17.1781C31.6229 21.1443 31.7684 21.5293 31.1341 22.6826Z" stroke="#ECBA33" stroke-width="1.5"/>
<path d="M26.2828 25.0305L22.9919 31.015C22.4029 32.0861 21.0737 32.4744 20.0231 31.8824C18.9725 31.2904 18.5983 29.9421 19.1873 28.871L22.4782 22.8865" stroke="#ECBA33" stroke-width="1.5" stroke-linecap="round"/>
<path d="M21.187 29.7749L21.1811 29.7766" stroke="#ECBA33" stroke-width="2" stroke-linecap="round" stroke-linejoin="round"/>
</g>
<defs>
<clipPath id="clip0_0_1">
<rect width="37" height="37" fill="white"/>
</clipPath>
</defs>
</svg>
